<?xml version="1.0" encoding="utf-8"?>
<!-- Generator: Adobe Illustrator 22.1.0, SVG Export Plug-In . SVG Version: 6.00 Build 0)  -->
<svg version="1.1" id="Capa_1" xmlns="http://www.w3.org/2000/svg" xmlns:xlink="http://www.w3.org/1999/xlink" x="0px" y="0px"
	 viewBox="0 0 498.5 76.3" style="enable-background:new 0 0 498.5 76.3;" xml:space="preserve">
<style type="text/css">
	.st0{fill:#474747;}
	.st1{fill:#BF3A2C;}
	.st2{fill:#334E5C;}
	.st3{fill:#E2584D;}
	.st4{fill:#EFC85F;}
	.st5{fill:#E5E7E7;}
</style>
<g>
	<path class="st0" d="M157,69.6c-1-0.1-1.9-0.1-2.9-0.1l-4.1,0.1c-0.8,0-1.7,0-2.5-0.1c-0.4-0.1-0.6-0.6-0.6-1.5c0-0.4,0-0.7,0.1-1
		c0.1-0.3,0.2-0.4,0.4-0.4c0.9,0.1,1.7,0.1,2.6,0.1h1.5l-0.1-0.4c-0.1-5.9-0.2-11.8-0.2-17.8c0-7.3-0.1-14.6-0.3-21.8
		c-7.3,13-14,26.3-19.9,39.9L131,67c0,0.5-0.2,0.9-0.5,1.2c-0.4,0.3-0.7,0.5-1.1,0.5c-0.4,0-0.8-0.3-1.1-0.8
		c-6-13.8-12.8-27.2-20.2-40.3c0.1,3.4,0.1,6.7,0.1,10.1l-0.1,11.5c0,5.6,0.1,11.3,0.4,16.9h0.5c1,0,2,0,2.9,0.1
		c0.4,0.1,0.5,0.6,0.5,1.5c0,0.9-0.2,1.4-0.5,1.4c-1-0.1-1.9-0.1-2.9-0.1l-4.1,0.1c-0.8,0-1.7,0-2.5-0.1c-0.4-0.1-0.6-0.6-0.6-1.5
		c0-0.4,0.1-0.7,0.1-1c0.1-0.3,0.2-0.4,0.4-0.4c0.9,0.1,1.7,0.1,2.6,0.1h0.8c-0.4-2.2-0.5-7.8-0.5-16.6l0.1-12.1
		c0-5.6-0.1-11.1-0.4-16.6c0-0.5,0.1-0.9,0.4-1.1c0.3-0.2,0.6-0.4,1.1-0.4c0.4,0,0.7,0.1,1,0.4c0.3,0.3,0.5,0.7,0.5,1.3
		c7.9,13.5,15,27.3,21.4,41.6c6.4-14.4,13.6-28.4,21.4-42c0.1-0.4,0.3-0.8,0.7-1.1c0.4-0.5,0.8-0.7,1.3-0.7c0.4,0,0.8,0.1,1.1,0.5
		c0.3,0.3,0.5,0.7,0.5,1.1c0,0.2-0.1,0.6-0.4,1.1c0.3,8.8,0.4,17.5,0.4,26.3c0,6.1,0.1,12.2,0.2,18.3v0.3c0.9,0,1.7,0,2.6,0.1
		c0.4,0.1,0.5,0.6,0.5,1.5C157.5,69.1,157.4,69.6,157,69.6z"/>
	<path class="st0" d="M169.9,66.9c-0.5,0-1,0-1.5-0.1c-0.2,0-0.3,0-0.3-0.1c-3.3-0.6-6-2.2-8.1-4.7c-2.1-2.5-3.1-5.4-3.1-8.7
		c0-2.8,0.7-5.4,1.9-7.9c1.3-2.5,3-4.5,5.3-6c1.8-1,3.7-1.6,5.6-1.6c3.6,0,6.8,1.5,9.5,4.6c2.4,3,3.6,6.3,3.6,9.7
		c0,2.1-0.5,4.2-1.4,6.2c-1,2.4-2.6,4.4-4.6,6C174.8,66,172.5,66.9,169.9,66.9z M169.6,63.8c2.3,0,4.3-0.8,6.1-2.4
		c1.7-1.6,2.9-3.5,3.6-5.8c0.3-1.1,0.5-2.2,0.5-3.3c0-3.4-1.3-6.4-4-9c-1.8-1.6-3.8-2.4-5.9-2.4c-2.1,0-4.1,0.8-5.9,2.5
		c-1.3,1.3-2.3,2.8-3.1,4.6c-0.7,1.8-1.1,3.6-1.1,5.4c0,2.9,1,5.3,2.9,7.2C164.7,62.5,167,63.6,169.6,63.8z"/>
	<path class="st0" d="M197.5,67.2c-0.4,0-0.7-0.1-1-0.3c-0.3-0.2-0.5-0.5-0.6-0.8c-3.3-9-6.8-17.9-10.6-26.6
		c-0.1-0.2-0.1-0.5-0.1-0.7c0-0.2,0-0.5,0.1-0.7h-0.4c-0.6,0-1.3,0-1.9-0.1c-0.1,0-0.2-0.2-0.3-0.5c-0.1-0.3-0.1-0.6-0.1-1
		c0-0.9,0.1-1.4,0.4-1.4c0.6,0.1,1.3,0.1,1.9,0.1l3.1-0.1c0.7,0,1.4,0,2.2,0.1c0.3,0.1,0.4,0.6,0.4,1.5c0,0.9-0.1,1.4-0.4,1.4
		c-0.8-0.1-1.5-0.1-2.2-0.1c3.4,7.7,6.6,15.5,9.5,23.4c4.9-12.9,8.1-20.7,9.7-23.3H206c-0.6,0-1.3,0-1.9-0.1c-0.1,0-0.2-0.2-0.3-0.5
		c-0.1-0.3-0.1-0.6-0.1-1c0-0.9,0.1-1.4,0.4-1.4c0.6,0.1,1.3,0.1,1.9,0.1l3.1-0.1c0.7,0,1.4,0,2.2,0.1c0.3,0.1,0.4,0.6,0.4,1.5
		c0,0.9-0.1,1.4-0.4,1.4l-1.7-0.1c0.1,0.2,0.2,0.5,0.2,0.7c0,0.2-0.1,0.5-0.2,0.7C206,48.2,202.4,57,199.1,66c0,0.4-0.2,0.6-0.5,0.8
		C198.2,67.1,197.9,67.2,197.5,67.2z"/>
	<path class="st0" d="M225.6,67.2c-2.6,0-5.2-0.8-7.6-2.3c-1.9-1.4-3.4-3.1-4.3-5.1c-1-2-1.4-4.1-1.4-6.3c0-2.2,0.5-4.4,1.4-6.5
		c1.2-2.6,2.9-4.8,5.2-6.5c2.3-1.7,4.8-2.6,7.6-2.6c4.1,0,6.9,1.7,8.5,5c1.1,2.3,1.6,4.4,1.6,6.4c0,0.5-0.1,1-0.2,1.6
		c-0.8,2.7-3.3,4.1-7.5,4.1c-8.9,0-13.4,0-13.6-0.1c0.5,3.8,2.5,6.6,6,8.5c1.4,0.6,2.8,1,4.2,1c1.6,0,3.2-0.4,4.7-1.2
		c1.3-0.7,2.4-1.7,3.2-2.9v-0.8c0-0.7,0.1-1.5,0.2-2.2c0-0.1,0.1-0.2,0.4-0.3c0.3-0.1,0.6-0.1,1-0.1s0.7,0,1,0.1
		c0.3,0.1,0.4,0.2,0.4,0.3c-0.1,0.8-0.1,1.5-0.1,2.2v0.4c0.1,0.2,0.2,0.5,0.2,0.7c0,0.2,0,0.4-0.1,0.7v1.3c0,0.6,0,1.2-0.1,1.9
		c-0.1,0.3-0.6,0.5-1.6,0.5c-0.6,0-1-0.1-1.2-0.2c-0.6,0.4-1.2,0.8-1.8,1.1C229.8,66.6,227.7,67.2,225.6,67.2z M229.1,51.9
		c1.1,0,2.1-0.2,3-0.5c0.9-0.3,1.4-1,1.4-2.2c-0.1-2-0.6-4-1.6-5.9c-1-1.6-2.8-2.4-5.4-2.5c-2.6,0-4.9,1-6.9,2.9
		c-1.9,1.9-3.2,4.2-3.9,6.6l-0.3,1.4l0.4-0.1C223,51.8,227.4,51.8,229.1,51.9z"/>
	<path class="st0" d="M258.9,69.3c-0.9-0.1-1.7-0.1-2.6-0.1l-4.1,0.1c-1,0-1.9,0-2.9-0.1c-0.2,0-0.3-0.2-0.4-0.5
		c-0.1-0.3-0.1-0.6-0.1-1s0-0.7,0.1-1c0.1-0.3,0.2-0.4,0.4-0.4c1,0.1,2,0.1,2.9,0.1h0.7l-0.2-13l0.1-5c0-2-0.3-3.9-0.8-5.8
		c-0.7-1.6-2.2-4.2-4.4-7.9c-5.7-9.6-8.5-14.7-8.5-15.1v-0.1h-0.6c-1,0-1.9,0-2.9-0.1c-0.2,0-0.3-0.2-0.4-0.5
		c-0.1-0.3-0.1-0.6-0.1-1c0-0.4,0.1-0.7,0.1-1c0.1-0.3,0.2-0.4,0.4-0.4c1,0.1,2,0.1,2.9,0.1l4.1-0.1c0.8,0,1.7,0,2.6,0.1
		c0.4,0.1,0.5,0.6,0.5,1.5c0,0.9-0.2,1.4-0.5,1.4c-0.9-0.1-1.7-0.1-2.6-0.1h-0.4l10.6,18.1c0.6,1,1.2,2,1.7,3.1
		c6.9-12.2,10.9-19.2,12.1-21.1H266c-1,0-1.9,0-2.9-0.1c-0.2,0-0.3-0.2-0.4-0.5c-0.1-0.3-0.1-0.6-0.1-1c0-0.4,0-0.7,0.1-1
		c0.1-0.3,0.2-0.4,0.4-0.4c1,0.1,2,0.1,2.9,0.1l4.1-0.1c0.8,0,1.7,0,2.6,0.1c0.4,0.1,0.5,0.6,0.5,1.5c0,0.9-0.2,1.4-0.5,1.4
		c-0.9-0.1-1.7-0.1-2.6-0.1h-0.7c0.1,0.2,0.1,0.3,0.1,0.5c0,0.2-0.1,0.5-0.2,0.8c-2.2,3.7-4.3,7.5-6.4,11.2
		c-2.4,4.3-4.8,8.5-7.3,12.7c0.2,1.2,0.2,2.5,0.2,3.7l-0.1,4.5l0.2,13.4h0.4c0.8,0,1.7,0,2.6,0.1c0.4,0.1,0.5,0.6,0.5,1.5
		S259.2,69.3,258.9,69.3z"/>
	<path class="st0" d="M285,66.9c-0.5,0-1,0-1.5-0.1c-0.2,0-0.3,0-0.3-0.1c-3.3-0.6-6-2.2-8.1-4.7c-2.1-2.5-3.1-5.4-3.1-8.7
		c0-2.8,0.7-5.4,1.9-7.9c1.3-2.5,3-4.5,5.3-6c1.8-1,3.7-1.6,5.6-1.6c3.6,0,6.8,1.5,9.5,4.6c2.4,3,3.6,6.3,3.6,9.7
		c0,2.1-0.5,4.2-1.4,6.2c-1,2.4-2.6,4.4-4.6,6C289.8,66,287.5,66.9,285,66.9z M284.7,63.8c2.3,0,4.3-0.8,6.1-2.4
		c1.7-1.6,2.9-3.5,3.6-5.8c0.3-1.1,0.5-2.2,0.5-3.3c0-3.4-1.3-6.4-4-9c-1.8-1.6-3.8-2.4-5.9-2.4c-2.1,0-4.1,0.8-5.9,2.5
		c-1.3,1.3-2.3,2.8-3.1,4.6c-0.7,1.8-1.1,3.6-1.1,5.4c0,2.9,1,5.3,2.9,7.2C279.8,62.5,282.1,63.6,284.7,63.8z"/>
	<path class="st0" d="M327,69.3c-0.8-0.1-1.5-0.1-2.2-0.1l-3.1,0.1c-0.6,0-1.3,0-1.9-0.1c-0.1,0-0.2-0.2-0.3-0.5
		c-0.1-0.3-0.1-0.6-0.1-1c0-0.9,0.1-1.4,0.4-1.4c0.6,0.1,1.3,0.1,1.9,0.1h0.7V62c-1.1,1.6-2.5,2.8-4.1,3.8c-1.7,0.9-3.5,1.3-5.3,1.3
		c-3,0-5.7-1.1-8.2-3.4c-1.8-2-3-4.3-3.6-6.8c-0.6-2.5-0.8-5.2-0.8-7.9c0-1.5,0-2.9,0.1-4.4c0.1-1.5,0.1-3.4,0.1-5.7
		c0-0.3,0.1-0.6,0.2-0.8h-0.2c-0.6,0-1.3,0-1.9-0.1c-0.1,0-0.2-0.2-0.3-0.5c-0.1-0.3-0.1-0.6-0.1-1c0-0.9,0.1-1.4,0.4-1.4
		c0.6,0.1,1.3,0.1,1.9,0.1l3.1-0.1c0.7,0,1.4,0,2.2,0.1c0.3,0.1,0.4,0.6,0.4,1.5c0,0.9-0.1,1.4-0.4,1.4c-0.8-0.1-1.5-0.1-2.2-0.1
		h-0.5c0.2,0.2,0.3,0.5,0.3,0.9c0,0.4,0,0.7,0,1.1c0,1.4,0,2.9-0.1,4.4c-0.1,1.5-0.1,3-0.1,4.6c0,4.4,0.7,7.9,2.2,10.6
		c1.9,3,4.4,4.5,7.4,4.5c1,0,2-0.2,3-0.6c2.1-0.9,3.6-2.4,4.6-4.4c1-2,1.5-4.1,1.5-6.2v-0.6c0-0.3,0.1-0.6,0.2-0.8
		c-0.1-4.4-0.3-8.8-0.5-13.3v-0.1h-0.7c-0.6,0-1.3,0-1.9-0.1c-0.1,0-0.2-0.2-0.3-0.5c-0.1-0.3-0.1-0.6-0.1-1c0-0.9,0.1-1.4,0.4-1.4
		c0.6,0.1,1.3,0.1,1.9,0.1l3.1-0.1c0.7,0,1.4,0,2.2,0.1c0.3,0.1,0.4,0.6,0.4,1.5c0,0.9-0.1,1.4-0.4,1.4l-1.7-0.1l0.1,0.2
		c0.4,9.3,0.6,18.6,0.6,27.9v0.2l1.5,0.1c0.3,0.1,0.4,0.6,0.4,1.5C327.3,68.9,327.2,69.3,327,69.3z"/>
	<path class="st0" d="M333.8,69.4c-0.6-0.1-1.3-0.1-1.9-0.1l-3.1,0.1c-0.8,0-1.5,0-2.2-0.1c-0.1,0-0.2-0.2-0.3-0.5s-0.1-0.6-0.1-1
		s0-0.7,0.1-1c0.1-0.3,0.2-0.4,0.3-0.4c0.6,0.1,1.3,0.1,1.9,0.1c-0.3-2.2-0.5-6.6-0.6-13.4c-0.1-0.2-0.1-0.4-0.1-0.6l0.1-1.4
		L327.8,39c0-0.3,0-0.5,0.1-0.7c-0.6,0-1.3,0-1.9-0.1c-0.1,0-0.2-0.2-0.3-0.5s-0.1-0.6-0.1-1s0-0.7,0.1-1c0.1-0.3,0.2-0.4,0.3-0.4
		c0.7,0.1,1.5,0.1,2.2,0.1l3.1-0.1c0.6,0,1.3,0,1.9,0.1c0.3,0.1,0.4,0.6,0.4,1.5c0,0.9-0.1,1.4-0.4,1.4c-0.6-0.1-1.3-0.1-1.9-0.1
		h-0.7c0.1,0.2,0.2,0.5,0.2,0.8v4c0.7-0.9,1.5-1.8,2.5-2.5c2.2-1.6,4.5-2.3,6.9-2.3c1.3,0,2.6,0.2,3.8,0.7c0-0.2,0-0.4,0.1-0.7
		c0.1-0.3,0.5-0.4,1.5-0.4c0.4,0,0.7,0,1,0.1c0.3,0.1,0.4,0.2,0.4,0.3c-0.1,0.7-0.1,1.3-0.1,1.9l0.1,3.1c0,0.7,0,1.5-0.1,2.2
		c0,0.1-0.2,0.2-0.5,0.3s-0.6,0.1-1,0.1c-0.4,0-0.7,0-1-0.1c-0.3-0.1-0.4-0.2-0.4-0.3c0.1-0.8,0.1-1.5,0.1-2.2v-1.1
		c-1.3-0.6-2.6-0.9-3.9-0.9c-1.9,0-3.7,0.7-5.4,2c-2.3,2.1-3.6,4.8-3.8,7.9c0.1,5.1,0.3,10.2,0.5,15.2h0.4c0.6,0,1.3,0,1.9,0.1
		c0.3,0.1,0.4,0.6,0.4,1.5C334.2,68.9,334.1,69.4,333.8,69.4z"/>
	<path class="st0" d="M364.2,67.8c-4,0-7.5-1.2-10.4-3.6c-0.9-0.7-1.6-1.5-2.2-2.4c-0.3,0.1-0.7,0.2-1.1,0.2c-0.9,0-1.4-0.2-1.4-0.5
		c0.1-0.9,0.1-1.7,0.1-2.6l-0.1-4.1c0-1,0-1.9,0.1-2.9c0.1-0.4,0.6-0.5,1.5-0.5c0.9,0,1.4,0.2,1.4,0.5l-0.1,2.2
		c0.2,0.2,0.3,0.5,0.3,0.8c0.2,4.4,2.4,7.4,6.6,9c1.8,0.7,3.6,1,5.5,1c4,0,7.1-1.8,9.2-5.4c1.2-2,1.8-4,1.8-6c0-0.7-0.1-1.3-0.2-2
		c-0.8-3.5-3.3-5.6-7.3-6.4c-1.4-0.2-3-0.4-4.7-0.5c-2.4-0.1-4.7-0.4-6.9-1c-2.2-0.6-3.9-1.9-5.1-4c-0.9-1.8-1.4-3.7-1.4-5.7
		c0-3.4,1.1-6.7,3.5-9.7c2.3-3,5.1-5,8.5-5.9c1.1-0.2,2.2-0.4,3.3-0.4c2.2,0,4.3,0.4,6.3,1.3c1.7,0.7,3.1,1.7,4.3,3
		c0-0.4,0.5-0.7,1.5-0.7c0.9,0,1.4,0.2,1.4,0.5c-0.1,1-0.1,2-0.1,2.9l0.1,4.1c0,0.8,0,1.7-0.1,2.5c-0.1,0.4-0.6,0.6-1.5,0.6
		c-0.9,0-1.4-0.2-1.4-0.5l0.1-0.7c-0.3-0.2-0.4-0.5-0.4-1l0.1-1c0-2.2-0.7-3.9-2.2-5.3c-2-1.9-4.6-2.8-7.7-2.8
		c-4.2,0-7.7,2-10.4,6.1c-1.4,2.2-2,4.6-2,7.1c0,1.8,0.5,3.4,1.6,4.8c0.9,0.9,2,1.5,3.4,1.8s3.1,0.5,5.1,0.6c3,0,5.9,0.6,8.7,1.6
		c4.2,2,6.5,5.4,6.7,10.4c0,2.2-0.5,4.4-1.6,6.4C374.1,65.2,369.9,67.8,364.2,67.8z"/>
	<path class="st0" d="M394.2,66.9c-0.6,0-1.1,0-1.7-0.1c-4.9-0.8-8.4-3.5-10.5-7.9c-0.8-1.8-1.2-3.7-1.2-5.6c0-2.9,0.8-5.7,2.4-8.3
		c1.2-2,2.8-3.7,4.7-5.1c2.1-1.5,4.5-2.2,7.1-2.3c1.9,0,3.7,0.5,5.5,1.5c0.6,0.4,1.1,0.8,1.6,1.2c0-0.2,0-0.4,0-0.5
		c0-0.2,0.2-0.3,0.5-0.4s0.6-0.1,1-0.1s0.7,0,1,0.1s0.5,0.2,0.5,0.3c-0.1,0.8-0.1,1.5-0.1,2.2L405,45c0,0.6,0,1.2-0.1,1.9
		c-0.1,0.3-0.6,0.5-1.6,0.5c-0.3,0-0.6,0-0.9-0.1c-0.3-0.1-0.4-0.2-0.4-0.3l0.1-1.8c-0.3-0.2-0.5-0.4-0.8-0.8
		c-0.5-1.3-1.3-2.2-2.5-2.8c-1.1-0.6-2.3-0.8-3.6-0.8c-1.7,0-3.3,0.4-4.7,1.2c-2,1.2-3.7,2.8-4.8,4.9c-1.2,2.1-1.8,4.3-1.8,6.7
		c0,2.4,0.8,4.4,2.1,6.2s3.2,3.1,5.4,3.8c0.9,0.2,1.8,0.4,2.7,0.4c1.7,0,3.3-0.4,4.7-1.2c1.3-0.7,2.3-1.6,3.1-2.9v-1.1
		c0-0.7,0.1-1.5,0.2-2.2c0-0.1,0.2-0.2,0.5-0.3c0.3-0.1,0.6-0.1,1-0.1s0.7,0,1,0.1c0.3,0.1,0.5,0.2,0.5,0.3
		c-0.1,0.8-0.1,1.5-0.1,2.2v0.5c0.2,0.2,0.2,0.5,0.2,0.8c0,0.2-0.1,0.5-0.2,0.8c0,1.3,0,2.2-0.1,2.9c-0.1,0.3-0.6,0.5-1.6,0.5
		c-0.4,0-0.7,0-1-0.1c-0.6,0.5-1.2,0.9-1.9,1.3C398.5,66.3,396.4,66.9,394.2,66.9z"/>
	<path class="st0" d="M434.2,69.4c-0.6-0.1-1.3-0.1-1.9-0.1l-3.1,0.1c-0.8,0-1.5,0-2.2-0.1c-0.1,0-0.2-0.2-0.3-0.5
		c-0.1-0.3-0.1-0.6-0.1-1c0-0.4,0-0.7,0.1-1c0.1-0.3,0.2-0.4,0.3-0.4c0.7,0.1,1.5,0.1,2.2,0.1h0.6c0-0.4-0.1-1-0.1-1.9
		c0-1.4,0-2.8,0.1-4.2c0.1-1.4,0.1-2.9,0.1-4.3c0-2-0.1-3.9-0.4-5.7c-0.3-1.8-0.9-3.6-1.8-5.2c-2-3-4.4-4.4-7.4-4.4
		c-1,0-2,0.2-3,0.6c-2.1,0.9-3.6,2.4-4.6,4.5c-1,2.1-1.5,4.2-1.5,6.3l-0.1,1.1c0.1,4.1,0.3,8.2,0.5,12.3c0,0.4-0.1,0.8-0.3,1h0.5
		c0.6,0,1.3,0,1.9,0.1c0.3,0.1,0.4,0.6,0.4,1.5c0,0.9-0.1,1.4-0.4,1.4c-0.6-0.1-1.3-0.1-1.9-0.1l-3.1,0.1c-0.8,0-1.5,0-2.2-0.1
		c-0.1,0-0.2-0.2-0.3-0.5c-0.1-0.3-0.1-0.6-0.1-1c0-0.4,0-0.7,0.1-1c0.1-0.3,0.2-0.4,0.3-0.4c0.7,0.1,1.5,0.1,2.2,0.1h0.3
		c-0.3-0.2-0.4-0.6-0.5-1c-0.7-15-1-30.1-1-45.1c0-0.5,0.2-0.9,0.5-1.1c-1.7,0-2.6-0.1-2.8-0.1c-0.2,0-0.3-0.2-0.4-0.5
		s-0.1-0.6-0.1-1c0-0.4,0-0.7,0.1-1c0.1-0.3,0.2-0.4,0.3-0.4c0.7,0.1,1.5,0.1,2.2,0.1l3.1-0.1c0.6,0,1.3,0,1.9,0.1
		c0.3,0.1,0.4,0.6,0.4,1.5c0,0.9-0.1,1.4-0.4,1.4c-0.6-0.1-1.3-0.1-1.9-0.1h-0.4c0.4,0.3,0.6,0.7,0.6,1.2c0,7.5,0.1,15,0.2,22.4
		c1-1.6,2.4-2.9,4.1-3.8c1.7-0.9,3.5-1.4,5.3-1.4c3,0,5.7,1.2,8.2,3.5c1.8,2,3,4.3,3.6,6.9c0.6,2.6,0.8,5.3,0.8,8.1
		c0,1.4,0,2.8-0.1,4.2c-0.1,1.4-0.1,2.7-0.1,4l0.1,2.1l1.4,0.1c0.3,0.1,0.4,0.6,0.4,1.5C434.6,69,434.5,69.4,434.2,69.4z"/>
	<path class="st0" d="M448.4,66.9c-0.5,0-1,0-1.5-0.1c-0.2,0-0.3,0-0.3-0.1c-3.3-0.6-6-2.2-8.1-4.7c-2.1-2.5-3.1-5.4-3.1-8.7
		c0-2.8,0.7-5.4,2-7.9c1.3-2.5,3-4.5,5.3-6c1.8-1,3.7-1.6,5.6-1.6c3.6,0,6.8,1.5,9.5,4.6c2.4,3,3.6,6.3,3.6,9.7
		c0,2.1-0.5,4.2-1.4,6.2c-1,2.4-2.6,4.4-4.6,6C453.3,66,451,66.9,448.4,66.9z M448.1,63.8c2.3,0,4.3-0.8,6.1-2.4
		c1.7-1.6,2.9-3.5,3.6-5.8c0.3-1.1,0.5-2.2,0.5-3.3c0-3.4-1.3-6.4-4-9c-1.8-1.6-3.8-2.4-5.9-2.4c-2.1,0-4.1,0.8-5.9,2.5
		c-1.3,1.3-2.3,2.8-3.1,4.6s-1.1,3.6-1.1,5.4c0,2.9,1,5.3,2.9,7.2C443.3,62.5,445.5,63.6,448.1,63.8z"/>
	<path class="st0" d="M476.8,66.9c-0.5,0-1,0-1.5-0.1c-0.2,0-0.3,0-0.3-0.1c-3.3-0.6-6-2.2-8.1-4.7c-2.1-2.5-3.1-5.4-3.1-8.7
		c0-2.8,0.7-5.4,2-7.9c1.3-2.5,3-4.5,5.3-6c1.8-1,3.7-1.6,5.6-1.6c3.6,0,6.8,1.5,9.5,4.6c2.4,3,3.6,6.3,3.6,9.7
		c0,2.1-0.5,4.2-1.4,6.2c-1,2.4-2.6,4.4-4.6,6C481.7,66,479.4,66.9,476.8,66.9z M476.5,63.8c2.3,0,4.3-0.8,6.1-2.4
		c1.7-1.6,2.9-3.5,3.6-5.8c0.3-1.1,0.5-2.2,0.5-3.3c0-3.4-1.3-6.4-4-9c-1.8-1.6-3.8-2.4-5.9-2.4c-2.1,0-4.1,0.8-5.9,2.5
		c-1.3,1.3-2.3,2.8-3.1,4.6s-1.1,3.6-1.1,5.4c0,2.9,1,5.3,2.9,7.2C471.6,62.5,473.9,63.6,476.5,63.8z"/>
	<path class="st0" d="M498.1,69.2c-0.6-0.1-1.3-0.1-1.9-0.1l-3.1,0.1c-0.8,0-1.5,0-2.2-0.1c-0.1,0-0.2-0.2-0.3-0.5
		c-0.1-0.3-0.1-0.6-0.1-1c0-0.4,0-0.7,0.1-1c0.1-0.3,0.2-0.4,0.3-0.4c0.7,0.1,1.5,0.1,2.2,0.1h0.2c-0.1-0.2-0.2-0.5-0.2-0.8
		c-0.6-15.1-1-30.3-1-45.5l-1.2-0.1c-0.1,0-0.2-0.2-0.3-0.5c-0.1-0.3-0.1-0.6-0.1-1c0-0.4,0-0.7,0.1-1c0.1-0.3,0.2-0.4,0.3-0.4
		c0.7,0.1,1.5,0.1,2.2,0.1l3.1-0.1c0.6,0,1.3,0,1.9,0.1c0.3,0.1,0.4,0.6,0.4,1.5c0,0.9-0.1,1.4-0.4,1.4c-0.6-0.1-1.3-0.1-1.9-0.1h-1
		c0,15.2,0.3,30.4,1,45.6c0,0.3,0,0.5-0.1,0.7h0.2c0.6,0,1.3,0,1.9,0.1c0.3,0.1,0.4,0.6,0.4,1.5C498.5,68.7,498.4,69.2,498.1,69.2z"
		/>
</g>
<g>
	<g>
		<path class="st1" d="M4.8,40.5h66.8c2.6,0,4.8,2.1,4.8,4.8v21.5c0,2.6-2.1,4.8-4.8,4.8H4.8c-2.6,0-4.8-2.1-4.8-4.8V45.3
			C0,42.7,2.1,40.5,4.8,40.5z"/>
		<path class="st2" d="M38.1,4.8c3.9,0,7.2,2.1,7.2,4.8h4.8c0-5.3-5.3-9.5-11.9-9.5S26.2,4.3,26.2,9.5H31C31,6.9,34.2,4.8,38.1,4.8z
			"/>
		<path class="st3" d="M21.5,9.5h33.4c7.9,0,14.3,6.4,14.3,14.3v47.7c0,2.6-2.1,4.8-4.8,4.8H11.9c-2.6,0-4.8-2.1-4.8-4.8V23.8
			C7.2,15.9,13.6,9.5,21.5,9.5z"/>
		<path class="st1" d="M14.3,9.5H62c5.3,0,9.5,4.3,9.5,9.5v9.5c0,5.3-4.3,9.5-9.5,9.5H14.3c-5.3,0-9.5-4.3-9.5-9.5v-9.5
			C4.8,13.8,9,9.5,14.3,9.5z"/>
		<g>
			<g>
				<path class="st4" d="M19.1,59.6c0,0,1.8,4.8,3.7,4.8c1.8,0,3.5-4.8,3.5-4.8V9.5h-7.2V59.6z M50.1,9.5v50.1c0,0,1.8,4.8,3.7,4.8
					c1.8,0,3.5-4.8,3.5-4.8V9.5H50.1z"/>
			</g>
		</g>
		<g>
			<g>
				<path class="st5" d="M16.7,54.8h11.9v-7.2H16.7V54.8z M47.7,47.7v7.2h11.9v-7.2H47.7z"/>
			</g>
		</g>
	</g>
</g>
</svg>
